<?xml version="1.0" encoding="UTF-8"?>
<svg id="_圖層_1" data-name="圖層 1" xmlns="http://www.w3.org/2000/svg" xmlns:xlink="http://www.w3.org/1999/xlink" viewBox="0 0 46 46">
  <defs>
    <style>
      .cls-1 {
        opacity: .5;
      }

      .cls-2 {
        clip-path: url(#clippath-2);
      }

      .cls-3 {
        fill: #1e1f1f;
      }

      .cls-3, .cls-4, .cls-5, .cls-6 {
        stroke-width: 0px;
      }

      .cls-4 {
        fill: none;
      }

      .cls-7 {
        clip-path: url(#clippath-1);
      }

      .cls-5 {
        fill: #fff;
      }

      .cls-8 {
        clip-path: url(#clippath);
      }

      .cls-6 {
        fill: #297538;
      }
    </style>
    <clipPath id="clippath">
      <rect class="cls-4" width="46" height="46"/>
    </clipPath>
    <clipPath id="clippath-1">
      <rect class="cls-4" width="46" height="46"/>
    </clipPath>
    <clipPath id="clippath-2">
      <rect class="cls-4" x="7" y="3.86" width="32" height="34.94"/>
    </clipPath>
  </defs>
  <g id="_组_13058" data-name="组 13058">
    <g class="cls-8">
      <g id="_组_12917" data-name="组 12917">
        <g id="_组_12916" data-name="组 12916">
          <g class="cls-7">
            <g id="_组_12915" data-name="组 12915">
              <path id="_路径_23948" data-name="路径 23948" class="cls-5" d="m19.6,37.5c-9.71-1.87-16.07-11.26-14.2-20.98C7.27,6.81,16.66.45,26.38,2.32c8.43,1.62,14.52,9,14.52,17.58-.09,8.55-6.13,15.88-14.5,17.6l-3.4,4.5-3.4-4.5Z"/>
              <path id="_路径_23949" data-name="路径 23949" class="cls-5" d="m39,19.9c.02-8.84-7.13-16.02-15.97-16.03-8.84-.02-16.02,7.13-16.03,15.97-.02,7.96,5.82,14.72,13.7,15.87l2.3,3.1,2.3-3.1c7.84-1.16,13.67-7.87,13.7-15.8"/>
              <g id="_组_12914" data-name="组 12914" class="cls-1">
                <g id="_组_12913" data-name="组 12913">
                  <g class="cls-2">
                    <g id="_组_12912" data-name="组 12912">
                      <path id="_路径_23950" data-name="路径 23950" class="cls-3" d="m25.3,35.7l-2.3,3.1-2.3-3.1c-8.74-1.27-14.8-9.39-13.53-18.13,1.27-8.74,9.39-14.8,18.13-13.53,8.74,1.27,14.8,9.39,13.53,18.13-1.02,7.01-6.52,12.52-13.53,13.53m-2.3,1.4l1.8-2.4.4-.1c7.98-1.4,13.32-9,11.92-16.98-1.4-7.98-9-13.32-16.98-11.92-7.98,1.4-13.32,9-11.92,16.98,1.11,6.33,6.21,11.2,12.58,12.02l.4.1,1.8,2.3Z"/>
                    </g>
                  </g>
                </g>
              </g>
              <path id="_路径_23951" data-name="路径 23951" class="cls-5" d="m23,5.8c7.73,0,14,6.27,14,14s-6.27,14-14,14-14-6.27-14-14h0c0-7.73,6.27-14,14-14"/>
              <path id="_路径_23952" data-name="路径 23952" class="cls-5" d="m37.87,19.89c-.03,8.25-6.74,14.91-14.99,14.88-8.25-.03-14.91-6.74-14.88-14.99.03-8.23,6.71-14.88,14.94-14.88,8.26.02,14.95,6.73,14.94,14.99"/>
              <path id="_路径_23953" data-name="路径 23953" class="cls-6" d="m25.91,16.44c-.67,1.52-3.06,1.52-3.06,1.52,0,0-1.79-1.37-1.12-2.89s3.74-3.07,3.74-3.07c0,0,1.11,2.92.44,4.44"/>
              <path id="_路径_23954" data-name="路径 23954" class="cls-6" d="m28.67,22.48c-1.36.96-3.41-.28-3.41-.28,0,0-.82-2.1.54-3.05s4.8-.69,4.8-.69c0,0-.57,3.07-1.93,4.03"/>
              <path id="_路径_23955" data-name="路径 23955" class="cls-6" d="m17.7,23.78c1.31-1.02,3.42.12,3.42.12,0,0,.92,2.06-.4,3.08s-4.76.92-4.76.92c0,0,.42-3.1,1.73-4.12"/>
              <path id="_路径_23956" data-name="路径 23956" class="cls-6" d="m19.27,13.18c1.01,1.39-.23,3.52-.23,3.52,0,0-2.15.89-3.16-.5s-.81-4.93-.81-4.93c0,0,3.18.52,4.19,1.91"/>
              <path id="_路径_23957" data-name="路径 23957" class="cls-6" d="m15.71,18.42c1.7-.24,2.99,1.86,2.99,1.86,0,0-.23,2.31-1.93,2.55s-4.73-1.62-4.73-1.62c0,0,1.96-2.55,3.66-2.79"/>
              <path id="_路径_23958" data-name="路径 23958" class="cls-6" d="m23.54,30.45s4.25-8.86-4.3-13.01c0,0,4.7,6.82,4.3,13.01"/>
              <g id="_路径_23959" data-name="路径 23959">
                <path class="cls-6" d="m34.02,21c-.11,0-.23-.02-.34-.06-.52-.19-.79-.76-.6-1.28.72-2,.05-4.19-1.65-5.45-.44-.33-.54-.96-.21-1.4.33-.44.96-.54,1.4-.21,2.42,1.79,3.36,4.9,2.35,7.73-.15.41-.53.66-.94.66Z"/>
              </g>
              <path id="_路径_23960" data-name="路径 23960" class="cls-6" d="m34.29,23.05c-.03.61-.55,1.07-1.15,1.04-.61-.03-1.07-.55-1.04-1.15.03-.61.55-1.07,1.15-1.04.61.03,1.08.54,1.05,1.15,0,0,0,0,0,0"/>
            </g>
          </g>
        </g>
      </g>
    </g>
  </g>
</svg>